<?xml version="1.0" encoding="UTF-8"?>
<svg xmlns="http://www.w3.org/2000/svg" version="1.1" viewBox="0 0 198.5 162">
  <defs>
    <style>
      .cls-1 {
        fill: #7e8033;
      }

      .cls-2 {
        fill: #fff;
      }

      .cls-3 {
        fill: #49642e;
      }
    </style>
  </defs>
  <!-- Generator: Adobe Illustrator 28.6.0, SVG Export Plug-In . SVG Version: 1.2.0 Build 709)  -->
  <g>
    <g id="Layer_1">
      <g>
        <path class="cls-1" d="M101.9,126s1.2-5.6.6-11-3-10.5-3-10.5c-7.7-16.3-28.6-26.8-52-24.6C19.3,82.7-1.8,103,.3,125.3c2.1,22.3,26.8,38.2,55,35.5,23.7-2.3,42.4-17,46.5-34.8ZM3.8,124c-1.8-19.5,17.6-37.4,43.3-40,11.3-1.2,22,.9,30.5,5.2-7.2-1.6-15.1-2-23.3-1.2-28.1,2.9-49.7,19.9-50.1,38.9-.2-.9-.3-1.9-.4-2.8Z"/>
        <path class="cls-3" d="M38.9,1.1c15.6,14.1,27.1,36.4,40.2,56.6,24.3,37.6,62.9,47.6,62.9,47.6-32.7-25.5-53.8-62.2-53.8-62.2,53,71.3,80.9,68.6,80.9,68.6,0,0-14.4-4.3-24.4-15.2-9.3-21.7-21-42.8-37.5-59.9-15.5-16.1-34.2-26.5-55.6-32.5-4.2-1.2-8.5-2.3-12.8-3Z"/>
        <path class="cls-3" d="M101.4,123.3c-1.1.1-2.3-3.4-2.7-7.8-.4-4.4,0-8.1,1.1-8.2,1.1-.1,2.3,3.4,2.7,7.8.4,4.4,0,8.1-1.1,8.2Z"/>
        <path class="cls-3" d="M101.1,117.2c34.3-10.8,66.2,7.9,79.3,17.3,2.8,2,6.8.2,7.2-3.2h0c.2-1.7-.6-3.4-2.1-4.4-9.5-5.9-45.6-25.9-85.2-13.2l.8,3.5Z"/>
      </g>
      <g>
        <path class="cls-2" d="M49,124.1c1.1,4.4,0,9.5-3.3,12.8-1.3,1.3-3,2.5-5,3-4.3,1-6.7-2-7.5-5.4-1.4-5.9.8-11,4.2-13.7,1.2-1,2.8-1.8,4.1-2.1,3.7-.9,6.4,1.1,7.4,5.4ZM37.2,133.3c.8,3.2,2.4,5,4.6,4.5,3.9-.9,4.4-7.9,3.3-12.6-.8-3.5-2.6-4.7-4.6-4.2-4.2,1-4.3,8.2-3.3,12.4Z"/>
        <path class="cls-2" d="M62.5,130.1c-1.5,3.5-4.1,5.7-5.4,6-1.1.3-2-.4-2.1-4.7-.2-7.4-.4-15.6-.6-22.5,0-1.8-.3-2-1.8-1.7-.5,0-1.2.2-1.6.2v-1.2c2-.7,4.1-1.7,5.2-2.4.7-.5,1-.6,1.2-.7.4,0,.5.3.5,1.3,0,8.6.3,19,.5,26.1,0,1.2.2,1.6.5,1.5.4,0,1.4-1,2.5-2.9l.9,1Z"/>
        <path class="cls-2" d="M73.9,127.5c-1.5,3.5-4,5.5-5.3,5.8-1.2.3-2-.7-2-4.3,0-3.1.1-7.8.1-11.3,0-.9-.2-1.3-.4-1.2-.4.1-1.5,1.2-2.3,2.5l-.8-1c1.6-2.8,4.1-5.3,5.6-5.6,1.1-.3,1.6,1.1,1.6,4.6,0,3.2,0,7.6-.1,10.8,0,1.2,0,1.7.4,1.6.4,0,1.4-1,2.5-2.9l.9,1ZM69.8,105c.3,1.4-.4,2.9-1.8,3.2-1.2.3-2.2-.3-2.5-1.6-.3-1.2.3-2.9,1.9-3.3,1.2-.3,2.1.5,2.4,1.6Z"/>
      </g>
      <g>
        <path class="cls-3" d="M167.9,113.4c-.7-.4-.9-1.1-.4-1.9.5-.8,1.4-1.1,2.2-.6.7.4.8,1.2.4,1.9-.5.9-1.5,1-2.2.6Z"/>
        <path class="cls-3" d="M179.3,117c-2.2.7-4.2.6-5.6-.2-1.4-.8-1.7-2.5-.6-4.5,1-1.7,2.9-3.3,5.1-3.7,1.5-.3,3.3-.2,4.3.4.9.5,1.4,1.4,1.1,1.9-.2.4-.9.8-1.4.7-.2,0-.4-.1-.4-.4-.1-.9-.4-1.5-1-1.9-1.5-.9-3.9,1.2-5.3,3.6-.9,1.5-.8,2.6.2,3.1,1.1.6,2.7.4,3.8.2v.7Z"/>
        <path class="cls-3" d="M190.4,115.3c-.2.4-.8.7-1.3.6-.3,0-.4-.1-.4-.5-.2-1-.5-1.6-1-1.9-.5-.3-1.3-.2-1.7.5-.4.7,0,1.5.4,2.5.7,1.7,1,2.6.4,3.5-1,1.7-4.2,1.9-5.8.9-1-.6-1.6-1.9-1.2-2.6.3-.5,1.1-.8,1.5-.6.2,0,.2.2.3.4,0,1.1.5,2,1.2,2.4.8.5,1.6.2,2-.5.3-.5.3-1.1-.2-2.5-.5-1.3-1.1-2.5-.4-3.6.4-.6,1.1-1.2,2.3-1.4,1-.2,2.2,0,3,.4.9.6,1.4,1.5,1,2.1Z"/>
        <path class="cls-3" d="M197.5,119.4c-.2.4-.8.7-1.3.6-.3,0-.4-.1-.4-.5-.2-1-.5-1.6-1-1.9-.5-.3-1.3-.2-1.7.5-.4.7,0,1.5.4,2.5.7,1.7,1,2.6.4,3.5-1,1.7-4.2,1.9-5.8.9-1-.6-1.6-1.9-1.2-2.6.3-.5,1.1-.8,1.5-.6.2,0,.2.2.3.4,0,1.1.5,2,1.2,2.4.8.5,1.6.2,2-.5.3-.5.3-1.1-.2-2.5-.5-1.3-1.1-2.5-.4-3.6.4-.6,1.1-1.2,2.3-1.4,1-.2,2.2,0,3,.4.9.6,1.4,1.5,1,2.1Z"/>
      </g>
    </g>
    <metadata>
      <sfw xmlns="http://ns.adobe.com/SaveForWeb/1.0/">
        <slices/>
        <sliceSourceBounds x="16.69" y="-150.11" width="202.72" height="159.97" bottomLeftOrigin="true"/>
      </sfw>
    </metadata>
  </g>
</svg>